<?xml version="1.0" encoding="UTF-8"?>
<svg xmlns="http://www.w3.org/2000/svg" xmlns:xlink="http://www.w3.org/1999/xlink" width="712.86pt" height="235.06pt" viewBox="0 0 712.86 235.06" version="1.1">
<defs>
<clipPath id="clip1">
  <path d="M 442 64 L 555 64 L 555 235.058594 L 442 235.058594 Z M 442 64 "/>
</clipPath>
<clipPath id="clip2">
  <path d="M 604 64 L 712.859375 64 L 712.859375 182 L 604 182 Z M 604 64 "/>
</clipPath>
</defs>
<g id="surface1">
<path style=" stroke:none;fill-rule:nonzero;fill:rgb(17.298889%,51.799011%,97.999573%);fill-opacity:1;" d="M 0 84.566406 C 2.554688 81.246094 1.890625 77.132813 2.59375 73.398438 C 14.9375 7.878906 96.597656 -22.574219 148.648438 19.003906 C 155.804688 24.71875 155.816406 24.730469 149.554688 30.96875 C 145.972656 34.539063 142.859375 39.945313 138.605469 41.101563 C 134.113281 42.316406 130.605469 36.195313 126.386719 33.675781 C 86.941406 10.097656 35.019531 35.183594 28.867188 80.914063 C 21.84375 133.152344 71.226563 171.859375 119.640625 151.964844 C 137.480469 144.636719 148.171875 131.328125 151.726563 112.292969 C 152.441406 108.476563 151.84375 106.828125 147.3125 106.902344 C 130.816406 107.175781 114.3125 106.867188 97.816406 107.105469 C 93.519531 107.167969 91.929688 105.984375 92.34375 101.621094 C 92.898438 95.761719 89.96875 88.113281 93.460938 84.441406 C 97 80.722656 104.691406 83.339844 110.554688 83.296875 C 130.789063 83.152344 151.03125 83.394531 171.265625 83.125 C 175.761719 83.0625 177.4375 84.460938 177.832031 88.785156 C 182.800781 143.640625 146.507813 176.386719 105.414063 181.265625 C 52.867188 187.507813 5.289063 148.761719 1.277344 98.511719 C 1.207031 97.585938 0.933594 96.824219 0 96.449219 "/>
<g clip-path="url(#clip1)" clip-rule="nonzero">
<path style=" stroke:none;fill-rule:nonzero;fill:rgb(17.298889%,51.799011%,97.999573%);fill-opacity:1;" d="M 468.105469 120.640625 C 468.148438 133.898438 471.363281 142.71875 478.726563 149.835938 C 493.640625 164.242188 516.8125 160.867188 526.960938 142.816406 C 535.824219 127.050781 532.527344 105.664063 519.25 94.710938 C 509.703125 86.835938 498.820313 85.753906 487.785156 90.792969 C 473.863281 97.15625 468.417969 109.0625 468.105469 120.640625 M 491.082031 235.058594 C 489.785156 232.695313 487.199219 233.3125 485.253906 232.824219 C 469.410156 228.851563 457.886719 219.457031 449.601563 205.585938 C 447.199219 201.5625 446.652344 198.804688 452.164063 197.621094 C 452.796875 197.484375 453.371094 197.09375 453.980469 196.84375 C 458.449219 195.023438 462.855469 191.96875 467.414063 191.722656 C 472.617188 191.445313 472.882813 198.152344 476.046875 201.269531 C 486.054688 211.125 497.65625 213.675781 510.605469 209.386719 C 523.210938 205.210938 528.503906 195.222656 529.503906 182.632813 C 529.839844 178.382813 529.558594 174.085938 529.558594 169.460938 C 506.414063 185.605469 485.464844 185.839844 465.585938 170.554688 C 444.960938 154.695313 436.890625 127.984375 445.445313 103.882813 C 454.023438 79.714844 476.410156 63.898438 500.765625 64.792969 C 509.851563 65.128906 515.066406 67.269531 528.773438 76.296875 C 529.058594 76.03125 529.617188 75.722656 529.585938 75.503906 C 528.511719 68.277344 532.101563 67.058594 538.5625 67.246094 C 554.441406 67.714844 554.453125 67.398438 554.453125 83.410156 C 554.453125 113.320313 554.421875 143.230469 554.472656 173.140625 C 554.480469 180.210938 553.769531 187.15625 552.082031 194.03125 C 546.5625 216.527344 532.289063 229.558594 509.609375 233.628906 C 508.21875 233.878906 506.414063 233.128906 505.605469 235.058594 "/>
</g>
<g clip-path="url(#clip2)" clip-rule="nonzero">
<path style=" stroke:none;fill-rule:nonzero;fill:rgb(98.799133%,17.999268%,15.699768%);fill-opacity:1;" d="M 662.121094 87.308594 C 645.175781 87.46875 630.679688 102.097656 630.359375 117.816406 C 630.273438 122.042969 632.25 120.769531 634.285156 119.925781 C 649.246094 113.726563 664.164063 107.425781 679.164063 101.324219 C 682.277344 100.058594 682.691406 98.777344 680.628906 96.195313 C 675.550781 89.851563 668.65625 87.703125 662.121094 87.308594 M 712.859375 109.648438 C 710.703125 108.824219 709.054688 110.273438 707.300781 110.996094 C 684.777344 120.257813 662.3125 129.667969 639.734375 138.804688 C 635.359375 140.578125 634.597656 142.046875 637.539063 146.109375 C 649.488281 162.601563 673.738281 163.460938 687.878906 147.230469 C 691.226563 143.386719 693.449219 142.839844 697.15625 146.078125 C 699.289063 147.941406 701.886719 149.265625 704.265625 150.847656 C 712.410156 156.273438 712.410156 156.277344 705.835938 163.304688 C 688.777344 181.542969 662.414063 186.972656 639.222656 177.027344 C 616.847656 167.429688 603.199219 144.433594 604.839844 119.085938 C 606.480469 93.710938 621.65625 73.753906 644.460938 66.984375 C 671.023438 59.097656 696.636719 71.570313 708.703125 98.234375 C 710.035156 101.183594 710.625 104.488281 712.859375 107.011719 "/>
</g>
<path style=" stroke:none;fill-rule:nonzero;fill:rgb(98.799133%,17.999268%,15.699768%);fill-opacity:1;" d="M 213.863281 122.933594 C 213.777344 143.089844 227.859375 158.515625 246.480469 158.660156 C 265.226563 158.808594 279.742188 143.585938 279.859375 123.65625 C 279.972656 103.527344 265.921875 88.148438 247.203125 87.914063 C 228.488281 87.683594 213.949219 102.957031 213.863281 122.933594 M 246.800781 64.761719 C 280.140625 64.757813 305.847656 90.457031 305.632813 123.574219 C 305.421875 156.425781 279.746094 181.960938 246.898438 181.988281 C 213.828125 182.011719 187.78125 155.898438 188.078125 123.007813 C 188.375 89.9375 213.757813 64.761719 246.800781 64.761719 "/>
<path style=" stroke:none;fill-rule:nonzero;fill:rgb(99.198914%,72.898865%,1.199341%);fill-opacity:1;" d="M 340.59375 123.28125 C 340.597656 143.371094 354.832031 158.640625 373.558594 158.652344 C 392.257813 158.664063 406.582031 143.335938 406.589844 123.308594 C 406.597656 103.210938 392.367188 87.96875 373.589844 87.96875 C 354.785156 87.964844 340.585938 103.160156 340.59375 123.28125 M 373.460938 64.761719 C 406.84375 64.726563 432.664063 90.527344 432.40625 123.664063 C 432.15625 156.5 406.214844 182.132813 373.378906 182.003906 C 340.523438 181.871094 314.652344 155.945313 314.761719 123.253906 C 314.871094 90.234375 340.402344 64.796875 373.460938 64.761719 "/>
<path style=" stroke:none;fill-rule:nonzero;fill:rgb(0%,67.098999%,27.49939%);fill-opacity:1;" d="M 570.289063 92.5 C 570.289063 65.691406 570.382813 38.882813 570.195313 12.074219 C 570.167969 7.867188 571.128906 6.238281 575.570313 6.597656 C 581.441406 7.070313 589.128906 4.722656 592.78125 7.648438 C 596.632813 10.738281 593.976563 18.738281 593.988281 24.570313 C 594.09375 73.796875 593.976563 123.019531 594.164063 172.242188 C 594.183594 177.0625 593.191406 178.902344 588.105469 178.394531 C 582.472656 177.832031 574.855469 180.226563 571.570313 177.363281 C 567.746094 174.019531 570.390625 166.242188 570.351563 160.40625 C 570.199219 137.769531 570.289063 115.136719 570.289063 92.5 "/>
<path style=" stroke:none;fill-rule:nonzero;fill:rgb(99.198914%,98.799133%,99.198914%);fill-opacity:1;" d="M 468.105469 120.640625 C 468.417969 109.0625 473.863281 97.15625 487.785156 90.792969 C 498.820313 85.753906 509.703125 86.835938 519.25 94.710938 C 532.527344 105.664063 535.824219 127.050781 526.960938 142.816406 C 516.8125 160.867188 493.640625 164.242188 478.726563 149.835938 C 471.363281 142.71875 468.148438 133.898438 468.105469 120.640625 "/>
<path style=" stroke:none;fill-rule:nonzero;fill:rgb(99.198914%,98.399353%,98.399353%);fill-opacity:1;" d="M 662.121094 87.308594 C 668.65625 87.703125 675.550781 89.851563 680.628906 96.195313 C 682.691406 98.777344 682.277344 100.058594 679.164063 101.324219 C 664.164063 107.425781 649.246094 113.726563 634.285156 119.925781 C 632.25 120.769531 630.273438 122.042969 630.359375 117.816406 C 630.679688 102.097656 645.175781 87.46875 662.121094 87.308594 "/>
<path style=" stroke:none;fill-rule:nonzero;fill:rgb(99.198914%,98.399353%,98.399353%);fill-opacity:1;" d="M 213.863281 122.933594 C 213.949219 102.957031 228.488281 87.683594 247.203125 87.914063 C 265.921875 88.148438 279.972656 103.527344 279.859375 123.65625 C 279.742188 143.585938 265.226563 158.808594 246.480469 158.660156 C 227.859375 158.515625 213.777344 143.089844 213.863281 122.933594 "/>
<path style=" stroke:none;fill-rule:nonzero;fill:rgb(99.198914%,98.399353%,98.399353%);fill-opacity:1;" d="M 340.59375 123.28125 C 340.585938 103.160156 354.785156 87.964844 373.589844 87.96875 C 392.367188 87.96875 406.597656 103.210938 406.589844 123.308594 C 406.582031 143.335938 392.257813 158.664063 373.558594 158.652344 C 354.832031 158.640625 340.597656 143.371094 340.59375 123.28125 "/>
</g>
</svg>
